<?xml version="1.0" encoding="UTF-8" standalone="no"?>
<!-- Created with Inkscape (http://www.inkscape.org/) -->

<svg
   width="124.03905mm"
   height="21.570312mm"
   viewBox="0 0 124.03905 21.570312"
   version="1.1"
   id="svg5"
   sodipodi:docname="logoblack2.svg"
   inkscape:version="1.1.2 (b8e25be833, 2022-02-05)"
   xmlns:inkscape="http://www.inkscape.org/namespaces/inkscape"
   xmlns:sodipodi="http://sodipodi.sourceforge.net/DTD/sodipodi-0.dtd"
   xmlns="http://www.w3.org/2000/svg"
   xmlns:svg="http://www.w3.org/2000/svg">
  <sodipodi:namedview
     id="namedview7"
     pagecolor="#ffffff"
     bordercolor="#666666"
     borderopacity="1.0"
     inkscape:pageshadow="2"
     inkscape:pageopacity="0.0"
     inkscape:pagecheckerboard="0"
     inkscape:document-units="mm"
     showgrid="false"
     inkscape:snap-text-baseline="true"
     inkscape:zoom="1.2788859"
     inkscape:cx="232.62436"
     inkscape:cy="161.07771"
     inkscape:window-width="1680"
     inkscape:window-height="987"
     inkscape:window-x="-8"
     inkscape:window-y="-8"
     inkscape:window-maximized="1"
     inkscape:current-layer="layer1"
     inkscape:lockguides="false"
     fit-margin-top="0"
     fit-margin-left="0"
     fit-margin-right="0"
     fit-margin-bottom="0" />
  <defs
     id="defs2">
    <rect
       x="173.32042"
       y="470.28342"
       width="425.02142"
       height="67.893028"
       id="rect12152" />
    <rect
       x="120.21421"
       y="285.70389"
       width="557.35675"
       height="110.84687"
       id="rect2859" />
  </defs>
  <g
     inkscape:label="Layer 1"
     inkscape:groupmode="layer"
     id="layer1"
     transform="translate(-4.907289,-2.267203)">
    <path
       style="fill:#280b0b;stroke-width:0.0254128"
       d="m 29.064298,19.840849 c -0.140534,-0.05609 -0.405087,-0.216058 -0.587895,-0.355493 -0.411483,-0.313853 -0.431878,-0.313666 -0.553068,0.0051 -0.08112,0.213351 -0.167247,0.258607 -0.492173,0.258607 h -0.39385 l -0.38673,-1.577506 C 26.43788,17.30393 26.26484,16.565732 26.266049,16.531116 c 0.0012,-0.03461 0.254793,-0.230649 0.563518,-0.435631 l 0.56132,-0.372695 0.307028,0.544025 c 0.422599,0.748804 0.8119,1.189385 1.35565,1.534221 0.81323,0.515736 1.664218,0.313419 1.684516,-0.400482 0.01519,-0.534282 -0.234702,-0.769195 -1.573188,-1.47888 -2.159694,-1.1451 -2.686856,-1.805699 -2.688748,-3.369328 -0.0013,-1.045257 0.197508,-1.646667 0.752714,-2.277414 0.517541,-0.5879574 1.088702,-0.8656162 1.780626,-0.8656162 0.507745,0 1.302332,0.2766499 1.441544,0.5018994 0.113483,0.1836208 0.349229,0.1316568 0.420428,-0.09267 0.05058,-0.1593725 0.156513,-0.2068856 0.46125,-0.2068856 h 0.395587 l 0.224732,1.2154544 c 0.123605,0.668499 0.246655,1.292174 0.273449,1.385943 0.0345,0.12074 -0.125907,0.277435 -0.549709,0.536989 l -0.598423,0.366499 -0.192256,-0.381825 c -0.232886,-0.462518 -0.843338,-1.121005 -1.224947,-1.321336 -0.571863,-0.300207 -1.250675,-0.142675 -1.366051,0.317019 -0.126327,0.503324 0.156534,0.788831 1.485797,1.499695 2.333562,1.247943 2.719317,1.714239 2.78021,3.360688 0.02791,0.754531 -0.0071,1.045282 -0.181853,1.511399 -0.443992,1.18411 -1.344741,1.859517 -2.463505,1.847207 -0.327759,-0.0036 -0.710906,-0.05244 -0.85144,-0.108532 z"
       id="path1114"
       inkscape:export-filename="C:\Station_de_test\FTS_Website\assets\img\logob.png"
       inkscape:export-xdpi="96"
       inkscape:export-ydpi="96" />
    <path
       style="fill:#280b0b;stroke-width:0.0254128"
       d="m 20.061674,18.818067 v -0.930986 h 0.349384 c 0.622162,0 0.633324,-0.0536 0.633324,-3.041483 v -2.699599 l -0.491354,-0.03153 -0.491354,-0.03153 v -0.916226 -0.916225 l 0.40764,-0.06887 c 0.224203,-0.03788 0.740038,-0.2281678 1.146301,-0.4228645 0.406264,-0.1946962 0.851241,-0.3539934 0.988839,-0.3539934 0.240783,0 0.250178,0.027194 0.250178,0.7240999 0,0.398255 0.03491,0.7229 0.07758,0.721433 0.04267,-0.0015 0.23438,-0.233825 0.426022,-0.516349 0.392564,-0.5787306 0.884088,-0.9291839 1.303214,-0.9291839 0.699711,0 1.237358,1.2285489 0.989606,2.2612949 -0.225018,0.93798 -0.732681,1.315466 -1.34398,0.999351 -0.392336,-0.202885 -0.725598,-0.199494 -1.025311,0.01043 l -0.239557,0.167793 0.03552,2.350787 c 0.03929,2.600662 0.06214,2.692659 0.668839,2.692659 h 0.349384 v 0.930986 0.930986 h -2.017136 -2.017137 z"
       id="path1153"
       inkscape:export-filename="C:\Station_de_test\FTS_Website\assets\img\logob.png"
       inkscape:export-xdpi="96"
       inkscape:export-ydpi="96" />
    <path
       style="fill:#280b0b;stroke-width:0.0254128"
       d="m 36.283646,19.81557 c -0.661791,-0.183573 -1.118983,-0.558756 -1.484008,-1.217811 l -0.307679,-0.555514 -0.0326,-3.180869 -0.0326,-3.18087 h -0.51048 -0.510476 V 10.769433 9.8583602 L 33.861008,9.5375025 C 34.464549,9.1120871 35.011834,8.0184616 35.18276,6.8962729 l 0.122108,-0.8016825 h 0.60211 0.602112 V 7.8531198 9.611649 h 1.086152 1.086149 v 1.034428 1.034429 H 37.595242 36.50909 v 2.537674 c 0,2.90209 0.05029,3.157032 0.674106,3.417681 0.454678,0.189976 0.954341,0.113018 1.449969,-0.223324 l 0.358556,-0.243322 v 1.024829 1.024831 l -0.646518,0.311869 c -0.781166,0.376822 -1.414475,0.464319 -2.061562,0.284826 z"
       id="path1192"
       inkscape:export-filename="C:\Station_de_test\FTS_Website\assets\img\logob.png"
       inkscape:export-xdpi="96"
       inkscape:export-ydpi="96" />
    <path
       style="fill:#280b0b;stroke-width:0.0254128"
       d="m 14.992972,18.818067 v -0.930986 h 0.354661 c 0.675756,0 0.679768,-0.01805 0.679768,-3.058955 v -2.733848 h -0.517215 -0.517214 v -0.930986 -0.930985 h 0.299432 c 0.433344,0 1.59343,-0.3786488 1.900776,-0.6204069 0.144833,-0.1139253 0.407275,-0.2071367 0.583205,-0.2071367 h 0.319874 V 13.52179 c 0,3.064209 0.03174,4.148771 0.124131,4.241159 0.06827,0.06827 0.301019,0.124132 0.517215,0.124132 h 0.393083 v 0.930986 0.930986 H 17.06183 14.992972 Z"
       id="path1231"
       inkscape:export-filename="C:\Station_de_test\FTS_Website\assets\img\logob.png"
       inkscape:export-xdpi="96"
       inkscape:export-ydpi="96" />
    <path
       style="fill:#280b0b;stroke-width:0.0254128"
       d="m 5.5796678,18.818067 v -0.930986 h 0.3620501 c 0.2241263,0 0.4408638,-0.07881 0.568936,-0.206886 0.2009536,-0.200954 0.2068858,-0.34481 0.2068858,-5.016981 0,-4.6721704 -0.00593,-4.8160265 -0.2068858,-5.0169802 C 6.3825817,7.5181618 6.1658442,7.4393482 5.9417179,7.4393482 H 5.5796678 V 6.508362 5.5773759 h 3.8791083 c 2.1335099,0 3.8791089,0.037694 3.8791089,0.083764 0,0.04607 0.22625,1.0469025 0.502777,2.2240725 l 0.502777,2.1403086 -0.560347,0.303497 c -0.495223,0.268224 -0.566657,0.283246 -0.614635,0.129253 C 12.945529,9.7427485 12.511489,8.8782759 12.204134,8.5376418 11.67866,7.9552696 11.354373,7.8531198 10.031035,7.8531198 H 8.8898401 v 1.9136936 1.9136926 h 0.550905 c 0.8133439,0 1.0198459,-0.25626 1.0827969,-1.343707 l 0.04797,-0.8285928 h 0.555645 0.555645 v 3.1550078 3.155009 H 11.113866 10.54493 v -0.623981 c 0,-0.710876 -0.196354,-1.273158 -0.501657,-1.436551 -0.1148629,-0.06147 -0.4213749,-0.11177 -0.6811359,-0.11177 h -0.472297 l 0.0025,1.629226 c 0.0026,1.686914 0.09132,2.373088 0.326241,2.52204 0.07523,0.0477 0.311344,0.08744 0.524695,0.08831 l 0.3879109,0.0016 v 0.930986 0.930986 H 7.8554111 5.5796678 Z"
       id="path1270"
       inkscape:export-filename="C:\Station_de_test\FTS_Website\assets\img\logob.png"
       inkscape:export-xdpi="96"
       inkscape:export-ydpi="96" />
    <path
       style="fill:#280b0b;stroke-width:0.0254128"
       d="M 16.39528,8.1375878 C 15.694767,7.4357022 15.675963,5.9848406 16.35732,5.2088169 16.733447,4.7804331 17.241713,4.7228302 17.588202,5.0693188 18.403843,5.8849597 18.370786,7.5849423 17.526372,8.249161 17.123704,8.5659004 16.789896,8.532973 16.395284,8.1375878 Z"
       id="path1309"
       inkscape:export-filename="C:\Station_de_test\FTS_Website\assets\img\logob.png"
       inkscape:export-xdpi="96"
       inkscape:export-ydpi="96" />
    <path
       style="fill:#280b0b;stroke-width:0.0254128"
       d="m 46.6465,18.818067 v -0.930986 h 0.342278 c 0.188254,0 0.432639,-0.06605 0.543076,-0.146789 0.193971,-0.1418 0.200797,-0.316705 0.200797,-5.146285 V 7.5945126 l -0.258609,-0.027991 c -0.652526,-0.070628 -1.367324,0.7500499 -1.86495,2.1411906 l -0.325104,0.9088508 -0.568214,-0.307757 c -0.488886,-0.264792 -0.559869,-0.3410128 -0.508431,-0.5459521 0.03288,-0.1310063 0.271423,-1.1612446 0.530095,-2.2894178 0.258673,-1.1281735 0.494597,-2.1326858 0.52428,-2.2322496 0.03952,-0.1325685 0.162859,-0.1810251 0.460767,-0.1810251 0.364958,0 0.406799,0.026599 0.406799,0.2586072 v 0.2586073 h 2.730024 2.730024 l 0.06491,-0.2586073 c 0.05564,-0.2216707 0.123724,-0.2586072 0.476707,-0.2586072 0.226492,0 0.4118,0.022374 0.4118,0.04972 0,0.065374 1.028163,4.5012296 1.096333,4.7299698 0.03896,0.130741 -0.08199,0.2446838 -0.466706,0.4396328 -0.285618,0.144732 -0.560033,0.26315 -0.609812,0.26315 -0.04978,0 -0.149431,-0.196665 -0.221448,-0.437037 -0.470226,-1.5694722 -1.482553,-2.7722476 -2.125599,-2.5254874 -0.135239,0.051896 -0.155395,0.7020546 -0.155395,5.0121044 0,4.666504 0.01093,4.962359 0.189169,5.12367 0.104045,0.09416 0.360066,0.171197 0.568936,0.171197 h 0.379764 v 0.930986 0.930986 H 48.922244 46.6465 Z"
       id="path1348"
       inkscape:export-filename="C:\Station_de_test\FTS_Website\assets\img\logob.png"
       inkscape:export-xdpi="96"
       inkscape:export-ydpi="96" />
    <path
       style="fill:#280b0b;stroke-width:0.0254128"
       d="m 56.903252,19.797533 c -1.854057,-0.805094 -2.980949,-3.810285 -2.461903,-6.565383 0.220335,-1.169536 0.840574,-2.430095 1.466999,-2.981496 0.635706,-0.559572 1.122627,-0.7749479 1.865548,-0.8251737 1.190638,-0.080494 2.126935,0.5633559 2.747404,1.8892707 0.36495,0.779881 0.602993,1.849003 0.605411,2.719081 l 0.0019,0.646518 H 58.84095 56.553286 l 0.06935,0.594797 c 0.107267,0.920031 0.353314,1.553079 0.776568,1.998011 0.343604,0.361203 0.442002,0.407037 0.873853,0.407037 0.63356,0 0.952989,-0.17544 1.591548,-0.874124 0.28857,-0.315742 0.548005,-0.574077 0.576524,-0.574077 0.02852,0 0.221843,0.279838 0.429612,0.621861 l 0.377759,0.621861 -0.464249,0.650588 c -0.565414,0.792359 -1.191273,1.371589 -1.762043,1.630768 -0.521221,0.236679 -1.618713,0.257637 -2.118846,0.04046 z m 2.154124,-7.005016 c -0.003,-0.444215 -0.328869,-1.145845 -0.630208,-1.356912 -0.693854,-0.485994 -1.477622,0.120242 -1.687404,1.305191 l -0.06868,0.387911 h 1.194281 1.194282 z"
       id="path1387"
       inkscape:export-filename="C:\Station_de_test\FTS_Website\assets\img\logob.png"
       inkscape:export-xdpi="96"
       inkscape:export-ydpi="96" />
    <path
       style="fill:#280b0b;stroke-width:0.0254128"
       d="m 65.062428,19.840849 c -0.140533,-0.05609 -0.413239,-0.222277 -0.606012,-0.369312 -0.283647,-0.216349 -0.367784,-0.240039 -0.44114,-0.124214 -0.04985,0.07872 -0.09136,0.201309 -0.09223,0.272426 -0.0011,0.08313 -0.160266,0.129304 -0.445964,0.129304 h -0.444378 l -0.333145,-1.42234 c -0.183229,-0.782287 -0.358809,-1.518389 -0.390181,-1.635782 -0.04574,-0.17116 0.05659,-0.288884 0.516533,-0.594271 l 0.573569,-0.380827 0.169587,0.335662 c 0.788837,1.561331 2.205493,2.449914 2.947697,1.848913 0.295428,-0.239223 0.325197,-0.838816 0.05639,-1.135843 -0.100455,-0.111001 -0.749819,-0.497348 -1.44303,-0.858549 -2.158553,-1.124724 -2.730415,-1.91527 -2.635136,-3.642824 0.123558,-2.240302 1.894091,-3.4720227 3.657478,-2.5444275 0.460608,0.2422937 0.616193,0.2836335 0.681299,0.1810257 0.04641,-0.07314 0.08508,-0.1678888 0.08596,-0.210559 0.0013,-0.070526 0.829127,-0.1177861 0.829127,-0.047342 0,0.016632 0.11612,0.6334108 0.258046,1.3706178 0.141922,0.737208 0.258296,1.348428 0.258606,1.358266 2.65e-4,0.0098 -0.265975,0.184609 -0.591746,0.38838 l -0.592309,0.370492 -0.194744,-0.38838 c -0.234495,-0.467661 -0.843198,-1.126183 -1.227434,-1.327892 -0.392639,-0.206122 -0.946293,-0.185696 -1.152837,0.04253 -0.23644,0.261264 -0.21921,0.806173 0.0323,1.021522 0.111921,0.09583 0.751975,0.472423 1.422339,0.836869 1.559563,0.847865 2.012003,1.22116 2.372088,1.957147 0.24892,0.508776 0.287326,0.709054 0.282635,1.473844 -0.0046,0.73987 -0.05304,0.991164 -0.295695,1.531861 -0.311206,0.693457 -0.880621,1.292177 -1.458614,1.533678 -0.395258,0.16515 -1.417725,0.182212 -1.799058,0.03002 z"
       id="path1426"
       inkscape:export-filename="C:\Station_de_test\FTS_Website\assets\img\logob.png"
       inkscape:export-xdpi="96"
       inkscape:export-ydpi="96" />
    <path
       style="fill:#280b0b;stroke-width:0.0254128"
       d="m 72.361298,19.844122 c -0.568767,-0.138832 -1.0224,-0.443663 -1.333833,-0.896301 -0.515657,-0.749462 -0.527043,-0.832548 -0.56713,-4.138167 l -0.03795,-3.129148 H 69.91316 69.403935 l 0.0039,-0.905125 0.0039,-0.9051248 0.406363,-0.2810041 C 70.53034,9.0967273 71.074646,7.9638397 71.228665,6.6533833 l 0.06567,-0.5587929 h 0.606415 0.606417 V 7.8531198 9.611649 h 1.086149 1.086151 v 1.034428 1.034429 H 73.58696 72.494451 l 0.03222,2.663655 c 0.0355,2.935082 0.04694,2.989843 0.687835,3.293968 0.427117,0.202679 0.890966,0.131207 1.402836,-0.21616 l 0.372457,-0.252754 v 1.024829 1.024831 l -0.64652,0.311869 c -0.732962,0.353569 -1.391089,0.457625 -1.982039,0.313378 z"
       id="path1465"
       inkscape:export-filename="C:\Station_de_test\FTS_Website\assets\img\logob.png"
       inkscape:export-xdpi="96"
       inkscape:export-ydpi="96" />
    <path
       style="fill:#280b0b;stroke-width:0.0254128"
       d="m 79.386178,19.78997 c -0.227573,-0.08327 -0.682569,-0.360118 -1.011099,-0.615228 -0.386136,-0.299841 -0.611945,-0.417462 -0.638662,-0.332674 -0.02273,0.07214 -0.09503,0.305723 -0.160655,0.519074 -0.114361,0.371789 -0.138335,0.387911 -0.576792,0.387911 -0.251608,0 -0.457777,-0.03491 -0.45815,-0.07758 -2.64e-4,-0.04267 -0.139234,-1.194766 -0.308583,-2.560212 -0.169347,-1.365447 -0.30869,-2.557513 -0.30965,-2.649037 -0.0011,-0.107852 0.197051,-0.239639 0.563213,-0.374523 l 0.564957,-0.208115 0.212259,0.637844 c 0.446109,1.340557 1.450462,2.674555 2.306058,3.062946 0.550167,0.249745 1.361604,0.259558 1.825469,0.02208 0.68443,-0.350402 0.927997,-1.306551 0.53104,-2.084653 -0.24843,-0.486965 -0.791935,-0.837777 -2.43596,-1.572325 C 77.973126,13.267905 77.134625,12.652683 76.722671,11.915316 75.68275,10.053928 76.017128,7.4744476 77.467362,6.1705608 78.616609,5.1372902 80.215854,5.090683 81.47839,6.0536662 l 0.339563,0.2589985 0.10301,-0.2709361 c 0.05666,-0.1490149 0.103011,-0.3144551 0.103011,-0.3676449 0,-0.080303 0.925983,-0.1505892 0.933386,-0.070848 0.0013,0.014223 0.182118,1.0665317 0.401775,2.3384629 l 0.399376,2.3126024 -0.579859,0.256439 C 82.7582,10.696684 82.587068,10.732 82.556138,10.639206 82.532668,10.568816 82.33442,10.153484 82.115572,9.7162375 81.387844,8.2622788 80.52317,7.54279 79.503548,7.54279 c -0.269333,0 -0.617038,0.065853 -0.772682,0.1463392 -0.810297,0.4190211 -0.748075,1.7323818 0.112128,2.3666968 0.184965,0.136393 1.011264,0.544361 1.836222,0.906595 1.356391,0.595585 1.565166,0.72332 2.181759,1.334864 0.870405,0.863277 1.138941,1.505249 1.208815,2.889827 0.02952,0.584937 -0.0024,1.203067 -0.07985,1.551644 -0.29096,1.307677 -1.161698,2.479496 -2.202511,2.964081 -0.633823,0.295097 -1.724671,0.33468 -2.401253,0.08713 z"
       id="path1504"
       inkscape:export-filename="C:\Station_de_test\FTS_Website\assets\img\logob.png"
       inkscape:export-xdpi="96"
       inkscape:export-ydpi="96" />
    <path
       style="fill:#280b0b;stroke-width:0.0254128"
       d="m 87.877734,19.844122 c -0.577445,-0.14095 -1.022897,-0.444837 -1.355415,-0.924663 -0.50341,-0.72642 -0.567515,-1.219492 -0.567515,-4.365094 v -2.873859 h -0.517216 -0.517215 l 0.0013,-0.905125 0.0013,-0.9051248 0.360018,-0.2332037 C 85.82027,9.2890249 86.332757,8.440177 86.573208,7.500033 c 0.115046,-0.4498334 0.209177,-0.9500809 0.209177,-1.1116608 0,-0.2901047 0.0078,-0.2937818 0.620657,-0.2937818 h 0.620657 V 7.8531198 9.611649 h 1.086151 1.086152 v 1.034428 1.034429 h -1.09251 -1.092507 l 0.03222,2.663655 c 0.0355,2.935082 0.04693,2.989843 0.687834,3.293968 0.427115,0.202679 0.890964,0.131207 1.402837,-0.21616 l 0.372454,-0.252754 v 1.024829 1.024831 l -0.646517,0.311869 c -0.732962,0.353569 -1.391092,0.457625 -1.982039,0.313378 z"
       id="path1543"
       inkscape:export-filename="C:\Station_de_test\FTS_Website\assets\img\logob.png"
       inkscape:export-xdpi="96"
       inkscape:export-ydpi="96" />
    <path
       style="fill:#280b0b;stroke-width:0.0254128"
       d="m 92.961483,19.818459 c -0.527888,-0.16417 -0.989499,-0.626852 -1.298262,-1.30128 -0.206317,-0.45066 -0.256977,-0.726471 -0.256977,-1.399114 0,-1.982048 1.073306,-2.948611 3.794961,-3.417548 l 0.402035,-0.06927 -0.05445,-0.872687 c -0.06053,-0.970274 -0.231331,-1.345228 -0.662014,-1.453323 -0.616347,-0.154693 -0.879354,0.108719 -1.345261,1.347332 -0.241927,0.643163 -0.647346,0.969783 -1.033177,0.832368 -0.702085,-0.250046 -0.964713,-1.343646 -0.552688,-2.301422 0.432231,-1.00475 1.444054,-1.6774087 2.64079,-1.7555949 0.882563,-0.05766 1.572575,0.19437 2.148957,0.7849169 0.675418,0.692017 0.723236,0.956792 0.769464,4.260627 0.04676,3.341237 0.07295,3.466945 0.707025,3.39292 l 0.35295,-0.0412 v 0.906575 c 0,1.056214 -0.0802,1.150294 -0.980076,1.150294 -0.777812,0 -1.169184,-0.254181 -1.780212,-1.156179 -0.01508,-0.02226 -0.226436,0.122341 -0.469678,0.321337 -0.886016,0.724845 -1.69296,0.985968 -2.383391,0.771251 z m 2.17936,-2.354099 0.43415,-0.319278 v -0.935258 -0.935258 l -0.423265,0.06768 c -1.054462,0.168616 -1.692489,0.798885 -1.611775,1.592182 0.09129,0.897222 0.787894,1.127813 1.60089,0.529929 z"
       id="path1582"
       inkscape:export-filename="C:\Station_de_test\FTS_Website\assets\img\logob.png"
       inkscape:export-xdpi="96"
       inkscape:export-ydpi="96" />
    <path
       style="fill:#280b0b;stroke-width:0.0254128"
       d="m 102.2052,19.836006 c -0.56703,-0.13124 -1.44803,-0.975424 -1.65607,-1.586875 -0.10132,-0.297772 -0.15416,-1.276518 -0.1885,-3.491198 l -0.0477,-3.077427 h -0.455274 -0.45526 V 10.771425 9.8623452 l 0.45879,-0.3834969 c 0.578554,-0.4836104 1.068984,-1.4565902 1.215824,-2.4120826 0.0603,-0.3924625 0.12568,-0.7717547 0.14526,-0.8428716 0.023,-0.083567 0.238,-0.1293037 0.60779,-0.1293037 h 0.57218 V 7.8531198 9.611649 h 1.08616 1.08614 v 1.034428 1.034429 h -1.08614 -1.08616 l 0.004,2.301605 c 0.005,2.556545 0.0672,3.075387 0.41292,3.443367 0.43748,0.465673 0.87064,0.435918 1.98762,-0.136534 0.0427,-0.02187 0.0776,0.408782 0.0776,0.957002 v 0.996762 l -0.64652,0.298265 c -0.75631,0.348918 -1.398,0.442036 -2.03314,0.295033 z"
       id="path1621"
       inkscape:export-filename="C:\Station_de_test\FTS_Website\assets\img\logob.png"
       inkscape:export-xdpi="96"
       inkscape:export-ydpi="96" />
    <path
       style="fill:#280b0b;stroke-width:0.0254128"
       d="m 105.91928,18.818067 v -0.930986 h 0.34137 c 0.18774,0 0.39721,-0.05586 0.46549,-0.124132 0.0904,-0.09037 0.12413,-0.878115 0.12413,-2.896401 v -2.77227 h -0.46549 -0.4655 v -0.907396 -0.907394 l 0.69824,-0.132147 c 0.38404,-0.07268 0.94192,-0.2694928 1.23975,-0.4373619 0.29783,-0.1678686 0.65859,-0.3052157 0.80168,-0.3052157 h 0.26018 v 4.0786046 c 0,4.527591 -0.0191,4.403713 0.67977,4.403713 h 0.35466 v 0.930986 0.930986 h -2.01714 -2.01714 z"
       id="path1660"
       inkscape:export-filename="C:\Station_de_test\FTS_Website\assets\img\logob.png"
       inkscape:export-xdpi="96"
       inkscape:export-ydpi="96" />
    <path
       style="fill:#280b0b;stroke-width:0.0254128"
       d="m 113.39558,19.784835 c -0.64861,-0.229665 -1.39085,-0.953748 -1.80907,-1.764784 -0.57213,-1.109541 -0.65112,-1.532549 -0.64292,-3.443143 0.006,-1.487397 0.0364,-1.785532 0.23323,-2.3192 0.33507,-0.908333 0.6693,-1.420851 1.30619,-2.002922 0.72926,-0.6665118 1.37291,-0.894661 2.33064,-0.8261355 1.58045,0.1130805 2.79753,1.3633975 3.27445,3.3638655 0.22457,0.941974 0.22398,2.856554 -10e-4,3.78981 -0.36944,1.531364 -1.36114,2.851093 -2.41133,3.208928 -0.59652,0.203257 -1.69663,0.200159 -2.28003,-0.0064 z m 1.87759,-2.259009 c 0.22335,-0.223351 0.42254,-0.567621 0.5218,-0.901855 0.3843,-1.294063 0.28763,-3.353065 -0.20286,-4.321001 -0.29886,-0.589782 -0.49943,-0.725907 -1.06955,-0.725907 -0.339,0 -0.46488,0.06268 -0.72814,0.362511 -0.48742,0.555135 -0.67636,1.338673 -0.67337,2.792498 0.003,1.516331 0.20189,2.303917 0.70958,2.811616 0.48119,0.481181 0.9493,0.475385 1.44254,-0.01786 z"
       id="path1699"
       inkscape:export-filename="C:\Station_de_test\FTS_Website\assets\img\logob.png"
       inkscape:export-xdpi="96"
       inkscape:export-ydpi="96" />
    <path
       style="fill:#280b0b;stroke-width:0.0254128"
       d="m 119.57375,18.818067 v -0.930986 h 0.30294 c 0.61746,0 0.62804,-0.05154 0.62804,-3.058955 v -2.733848 h -0.46549 -0.46549 v -0.923646 -0.923645 l 0.59479,-0.171584 c 0.32714,-0.09437 0.81973,-0.2838714 1.09465,-0.4211116 0.27492,-0.1372404 0.63568,-0.249528 0.80168,-0.249528 h 0.30184 v 0.6804006 0.6804 l 0.5404,-0.472732 c 0.75727,-0.662438 1.1521,-0.8355472 1.90676,-0.8359811 0.55733,-3.175e-4 0.68659,0.039569 1.03443,0.3192094 0.9206,0.7401077 1.06492,1.4455367 1.06784,5.2197907 0.002,1.915331 0.0362,2.677141 0.12618,2.767098 0.0683,0.06827 0.30102,0.124132 0.51722,0.124132 h 0.39308 v 0.930986 0.930986 h -1.96541 -1.96542 v -0.930986 c 0,-0.896036 0.009,-0.931046 0.23275,-0.93257 0.53854,-0.0037 0.54074,-0.014 0.57507,-2.709888 0.0378,-2.964452 -0.0241,-3.319388 -0.58734,-3.373268 -0.46951,-0.04491 -0.83996,0.124357 -1.29738,0.592792 l -0.38215,0.391355 0.0313,2.450764 c 0.0336,2.629144 0.0369,2.644587 0.57436,2.648245 0.224,0.0015 0.23274,0.03653 0.23274,0.93257 v 0.930986 h -1.91369 -1.91369 z"
       id="path1738"
       inkscape:export-filename="C:\Station_de_test\FTS_Website\assets\img\logob.png"
       inkscape:export-xdpi="96"
       inkscape:export-ydpi="96" />
    <path
       style="fill:#280b0b;stroke-width:0.0960482"
       d=""
       id="path1777"
       transform="matrix(0.26458333,0,0,0.26458333,4.907289,2.267203)" />
    <path
       style="fill:#483737;stroke-width:0.0254128"
       d="m 107.30537,8.21418 c -0.37217,-0.3721661 -0.55854,-0.889593 -0.55854,-1.5506536 0,-1.7397519 1.36971,-2.456577 2.07024,-1.0834358 0.2483,0.486714 0.27617,1.489876 0.056,2.0167543 -0.35577,0.8514598 -1.05734,1.1277245 -1.56773,0.6173351 z"
       id="path1816"
       inkscape:export-filename="C:\Station_de_test\FTS_Website\assets\img\logob.png"
       inkscape:export-xdpi="96"
       inkscape:export-ydpi="96" />
    <path
       style="fill:#483737;stroke-width:0.0960482"
       d=""
       id="path1968"
       transform="matrix(0.26458333,0,0,0.26458333,4.907289,2.267203)" />
    <path
       style="fill:#483737;stroke-width:0.0480241"
       d=""
       id="path2787"
       transform="matrix(0.26458333,0,0,0.26458333,4.907289,2.267203)" />
  </g>
</svg>
